HIERARCHY
ROOT Hips
{
  OFFSET -33.9132 29.2015 117.021
  CHANNELS 6 Xposition Yposition Zposition Zrotation Xrotation Yrotation
  JOINT LeftUpLeg
  {
    OFFSET 8.64259 1.95398 -2.38835
    CHANNELS 3 Zrotation Xrotation Yrotation
    JOINT LeftLeg
    {
      OFFSET 43.7702 0 0
      CHANNELS 3 Zrotation Xrotation Yrotation
      JOINT LeftFoot
      {
        OFFSET 40.6238 0 0
        CHANNELS 3 Zrotation Xrotation Yrotation
        JOINT LeftToeBase
        {
          OFFSET 12.7242 0 0
          CHANNELS 3 Zrotation Xrotation Yrotation
          End Site
          {
            OFFSET 0 0 0
          }
        }
      }
    }
  }
  JOINT RightUpLeg
  {
    OFFSET -8.2249 1.95398 -2.59336
    CHANNELS 3 Zrotation Xrotation Yrotation
    JOINT RightLeg
    {
      OFFSET 43.5653 0 0
      CHANNELS 3 Zrotation Xrotation Yrotation
      JOINT RightFoot
      {
        OFFSET 40.6238 0 0
        CHANNELS 3 Zrotation Xrotation Yrotation
        JOINT RightToeBase
        {
          OFFSET 12.7242 0 0
          CHANNELS 3 Zrotation Xrotation Yrotation
          End Site
          {
            OFFSET 0 0 0
          }
        }
      }
    }
  }
  JOINT Spine
  {
    OFFSET 0.165834 0.87714 6.61349
    CHANNELS 3 Zrotation Xrotation Yrotation
    JOINT Spine1
    {
      OFFSET 7.38963 1.71661e-005 0
      CHANNELS 3 Zrotation Xrotation Yrotation
      JOINT Spine2
      {
        OFFSET 11.9445 1.14441e-005 0
        CHANNELS 3 Zrotation Xrotation Yrotation
        JOINT Spine3
        {
          OFFSET 14.7254 4.19617e-005 0
          CHANNELS 3 Zrotation Xrotation Yrotation
          JOINT Spine4
          {
            OFFSET 10.9679 0 0
            CHANNELS 3 Zrotation Xrotation Yrotation
            JOINT RightShoulder
            {
              OFFSET 2.46616 -1.6653 3.69651
              CHANNELS 3 Zrotation Xrotation Yrotation
              JOINT RightArm
              {
                OFFSET 13.0012 0 0
                CHANNELS 3 Zrotation Xrotation Yrotation
                JOINT RightForeArm
                {
                  OFFSET 28.7848 1.62311e-005 0
                  CHANNELS 3 Zrotation Xrotation Yrotation
                  JOINT RightHand
                  {
                    OFFSET 26.5688 1.62095e-005 0
                    CHANNELS 3 Zrotation Xrotation Yrotation
                    End Site
                    {
                      OFFSET 0 0 0
                    }
                  }
                }
              }
            }
            JOINT LeftShoulder
            {
              OFFSET 2.38034 -1.29275 -3.7523
              CHANNELS 3 Zrotation Xrotation Yrotation
              JOINT LeftArm
              {
                OFFSET 16.3182 6.07031e-005 0
                CHANNELS 3 Zrotation Xrotation Yrotation
                JOINT LeftForeArm
                {
                  OFFSET 27.0901 0 0
                  CHANNELS 3 Zrotation Xrotation Yrotation
                  JOINT LeftHand
                  {
                    OFFSET 24.5451 1.51738e-005 0
                    CHANNELS 3 Zrotation Xrotation Yrotation
                    End Site
                    {
                      OFFSET 0 0 0
                    }
                  }
                }
              }
            }
            JOINT Neck
            {
              OFFSET 5.0226 -0.0266342 0
              CHANNELS 3 Zrotation Xrotation Yrotation
              JOINT Head
              {
                OFFSET 6.69364 2.86102e-005 0
                CHANNELS 3 Zrotation Xrotation Yrotation
                End Site
                {
                  OFFSET 0 0 0
                }
              }
            }
          }
        }
      }
    }
  }
}
MOTION
Frames:	9
Frame Time:	0.0416667
33.0759 96.7745 0.172425 -111.257 -70.3995 -113.804 -178.27 18.8043 85.5529 -13.5133 12.3582 -0.667202 57.6039 -1.26578 -4.6078 18.579 -11.2599 11.2944 171.961 -16.83 88.5165 -25.26 -26.3742 -3.00514 75.0055 -11.4151 -7.23729 31.9955 -2.33645 4.15951 1.78844 8.07543 -89.8359 10.7275 3.63712 -0.00816546 -0.938377 3.63325 -0.168465 -23.5118 3.47122 1.08666 -3.49915 3.47122 1.08665 89.0722 -25.8379 -110.407 39.7921 4.26018 -26.1552 -5.1224 -39.3083 -5.34889 -26.7989 5.06486 -26.7433 -86.8559 -54.5082 84.1423 -13.8098 -17.5276 9.23921 -8.8848 18.8569 -0.0181252 3.43097 -0.111573 -10.5996 3.11067 -9.36055 -0.403176 -0.530253 -9.34331 -10.2505 
30.4867 97.1756 10.6839 -108 -65.9928 -112.892 -176.085 17.7944 83.6563 -25.8538 11.2966 -2.21277 62.2049 0.146223 -7.36676 15.9645 -15.4981 15.2109 172.137 -12.9281 84.5956 -40.2268 -26.8942 -6.65346 63.8702 -2.80412 -4.30943 34.5004 -3.68958 6.41657 1.65738 7.93367 -89.467 10.9982 3.54634 0.722867 -0.668006 3.57471 0.565884 -23.2339 3.165 1.75619 -3.22123 3.165 1.75619 90.1087 -25.6105 -108.329 48.1653 1.25839 -18.7281 -5.48755 -44.6523 -5.5654 -21.786 3.28848 -22.6979 -87.6642 -52.9482 82.732 -17.8519 -17.7573 6.14714 -8.75893 18.4028 -0.0188993 1.45599 -0.0317937 -12.3471 4.01774 -9.11098 -2.67087 -1.7532 -8.57737 -8.76907 
28.0249 97.5987 18.9081 -106.763 -60.5963 -113.282 -174.946 11.3454 82.2541 -28.0696 7.12362 -3.4667 68.9893 3.86531 -6.65602 18.1935 -13.3345 14.2742 175.002 -0.00456567 82.3236 -62.5869 -23.0708 -7.49944 57.3838 1.57141 -1.35556 19.1638 2.55709 5.53827 1.11685 8.05348 -89.198 10.7499 2.59374 1.35531 -0.919097 2.65088 1.23978 -23.4629 2.06656 2.07227 -3.45025 2.06655 2.07226 89.3415 -27.1744 -109.245 51.9541 1.98084 -10.641 -5.73723 -47.8297 -5.7256 -13.8219 1.59368 -18.8233 -88.1723 -52.0648 81.8381 -19.8354 -17.2741 -3.49675 -9.20659 16.1556 -0.0194727 4.97995 -0.322635 -12.4032 5.20784 -7.27332 -2.83565 -0.956757 -6.75065 -8.48453 
25.2878 98.3952 25.7302 -103.838 -54.9198 -108.86 -174.063 4.78337 83.5803 -26.6201 2.98414 -3.84361 74.0579 6.7047 -5.73597 18.8331 -12.626 13.8325 178.21 11.7736 86.0929 -65.9148 -17.3901 -6.37935 64.2964 -3.77198 -4.39355 23.3087 0.824121 5.68321 0.56684 8.10057 -89.3628 10.6652 1.42249 1.13708 -1.00539 1.47116 1.07337 -23.5401 1.01503 1.51199 -3.52749 1.01503 1.51199 89.3282 -27.9131 -108.953 51.7018 4.65097 -3.29337 -6.05045 -51.366 -5.94791 -13.1467 1.02319 -14.7357 -88.6513 -51.3509 81.0046 -17.8968 -16.8228 -14.2959 -9.59225 16.262 -0.0202408 6.23635 -0.441741 -12.4631 4.96515 -4.44173 -3.54728 0.719177 -3.90893 -6.46729 
21.8952 98.9118 32.2714 -100.352 -49.8138 -102.244 -173.861 -0.856617 85.1552 -23.7187 -1.87902 -2.53074 77.6543 8.07282 -4.78102 18.5873 -12.9293 14.051 -179.908 18.7473 91.862 -49.4333 -16.4923 -4.43448 67.1998 -6.01964 -4.33067 24.0795 0.0349975 7.34446 0.0439766 8.01361 -89.7179 10.8458 0.217925 0.54068 -0.825258 0.241501 0.530563 -23.3595 0.0453663 0.581179 -3.34687 0.0453555 0.581174 90.4443 -27.4853 -106.845 49.5788 7.07088 1.83733 -5.62605 -46.4579 -5.65353 -13.5319 1.25765 -16.4103 -88.088 -47.2971 81.0837 -14.9228 -15.3079 -19.1872 -10.2003 15.4794 -0.0208361 10.7868 -1.09757 -13.7619 5.14524 -1.55237 -4.49563 -0.38316 -0.788459 -4.33703 
17.7418 98.3404 38.869 -98.1441 -47.1556 -98.672 -173.883 -7.3068 85.5723 -19.1576 -5.46617 -1.80343 81.2815 10.1428 -4.95905 18.2323 -12.8843 13.5785 178.555 19.9638 95.0651 -23.3891 -11.7795 -0.0879583 63.879 -3.31386 -1.52771 23.5823 1.08853 4.41052 -0.493794 7.92349 -89.9731 11.0272 -0.970464 0.146808 -0.643341 -0.963079 0.18938 -23.1815 -0.969729 -0.151675 -3.16888 -0.969713 -0.15167 91.2999 -27.6675 -105.009 44.8413 9.74561 6.04906 -5.28152 -41.7397 -5.43968 -14.3973 1.75184 -19.8855 -87.6093 -43.6218 81.1201 -12.8406 -17.3679 -24.307 -9.44798 18.9254 -0.021796 10.3319 -1.63895 -18.6819 5.21609 0.628289 -4.91 -0.672969 1.50903 -0.785578 
12.5696 96.3474 46.0834 -96.5335 -45.9011 -96.5883 -173.448 -14.2753 85.6309 -15.378 -6.94367 -1.78426 84.7614 13.4078 -4.34525 19.5851 -12.6138 14.7501 178.841 19.923 97.161 -8.39872 -0.80876 2.03754 63.9337 -3.50209 -1.0413 23.7671 1.03574 4.31579 -0.730263 7.79379 -90.1379 11.2857 -1.51743 -0.123984 -0.384336 -1.52142 -0.0570754 -22.9257 -1.41 -0.574395 -2.91309 -1.41001 -0.5744 92.1525 -28.5681 -102.939 43.2449 11.0196 9.66074 -4.94712 -36.4288 -5.25418 -18.6026 1.57192 -15.1305 -87.8763 -43.1225 80.5847 -10.9006 -17.5721 -29.325 -9.68088 18.1718 -0.0221117 9.18622 -1.85412 -21.9393 5.89897 1.30966 -4.37566 -1.15059 2.13104 1.08234 
6.32527 95.2828 54.4314 -97.1177 -47.3912 -95.9051 -171.81 -19.539 87.9013 -16.9171 -5.39861 -1.46584 80.2772 12.4734 -3.04273 34.4103 -3.58409 15.8595 177.878 23.541 98.0374 -20.6918 -2.97063 2.37576 63.1263 -0.388126 -3.53674 20.329 2.45172 4.46808 -1.0054 7.73863 -90.4306 11.393 -2.20141 -0.635512 -0.276225 -2.22722 -0.537973 -22.8221 -1.90862 -1.26793 -2.80944 -1.90861 -1.26793 92.7601 -29.4926 -101.403 42.5133 11.6385 11.6867 -4.85227 -34.7946 -5.21066 -13.1391 0.742362 -11.969 -88.6383 -44.7701 79.7064 -14.8374 -16.8435 -30.9325 -9.07058 20.7814 -0.0226965 9.63534 -2.24437 -24.2523 7.14806 1.52308 -2.27247 -2.24679 1.95498 1.76046 
-0.53937 95.9354 62.8205 -99.8427 -48.3623 -97.0858 -168.315 -13.7289 93.5314 -36.5489 5.60041 -1.21065 65.4792 3.96682 0.326532 39.013 -0.195104 14.732 176.075 20.8131 98.23 -30.8963 -4.32099 3.31537 64.9579 -1.74899 -4.2986 12.1353 5.51656 5.71206 -1.00036 7.75286 -90.5738 11.3597 -2.25813 -0.9163 -0.309536 -2.29627 -0.815985 -22.8538 -1.87835 -1.55273 -2.84114 -1.87834 -1.55273 92.5193 -29.324 -101.944 45.5783 10.8176 11.3573 -4.74695 -32.8976 -5.16208 -8.39554 0.676236 -15.4171 -88.9921 -46.6513 79.5503 -19.4648 -13.2408 -28.1257 -8.95407 32.0766 -0.0250388 10.9176 -2.68521 -25.9682 6.48483 1.11178 -0.683812 -3.01819 1.22152 1.36107 
